<?xml version="1.0" standalone="no"?><!DOCTYPE svg PUBLIC "-//W3C//DTD SVG 1.1//EN" "http://www.w3.org/Graphics/SVG/1.1/DTD/svg11.dtd"><svg t="1735624861698" class="icon" viewBox="0 0 1024 1024" version="1.1" xmlns="http://www.w3.org/2000/svg" p-id="2924" xmlns:xlink="http://www.w3.org/1999/xlink" width="200" height="200"><path d="M150.592 655.232c12.48 0 22.592 10.112 22.592 22.613333v116.138667a67.754667 67.754667 0 0 0 67.754667 67.776h542.122666a67.754667 67.754667 0 0 0 67.754667-67.776v-116.16a22.592 22.592 0 1 1 45.184 0v116.16a112.938667 112.938667 0 0 1-112.938667 112.96H240.938667A112.938667 112.938667 0 0 1 128 794.005333v-116.181333c0-12.48 10.112-22.592 22.592-22.592z" fill="#000000" p-id="2925"></path><path d="M517.76 715.306667c11.84 0 21.461333-6.762667 21.461333-15.061334v-512c0-8.32-9.6-15.061333-21.482666-15.061333-11.861333 0-21.482667 6.741333-21.482667 15.061333v512c0 8.32 9.6 15.04 21.482667 15.04z" fill="#000000" p-id="2926"></path><path d="M503.36 730.517333a21.354667 21.354667 0 0 0 30.293333 0l234.24-235.413333a21.610667 21.610667 0 0 0 0-30.464 21.354667 21.354667 0 0 0-30.293333 0l-234.24 235.413333a21.610667 21.610667 0 0 0 0 30.464z" fill="#000000" p-id="2927"></path><path d="M531.264 730.965333c-8.362667 8.405333-21.397333 8.96-29.077333 1.216L264.618667 493.418667c-7.701333-7.744-7.168-20.821333 1.194666-29.226667 8.384-8.426667 21.397333-8.96 29.098667-1.237333L532.48 701.717333c7.701333 7.744 7.146667 20.821333-1.216 29.226667z" fill="#000000" p-id="2928"></path></svg>