<?xml version="1.0" standalone="no"?><!DOCTYPE svg PUBLIC "-//W3C//DTD SVG 1.1//EN" "http://www.w3.org/Graphics/SVG/1.1/DTD/svg11.dtd"><svg t="1735624790303" class="icon" viewBox="0 0 1024 1024" version="1.1" xmlns="http://www.w3.org/2000/svg" p-id="2457" xmlns:xlink="http://www.w3.org/1999/xlink" width="200" height="200"><path d="M810.858667 458.752c0 182.677333-148.096 330.773333-330.773334 330.773333S149.333333 641.429333 149.333333 458.752 297.408 128 480.085333 128c182.677333 0 330.773333 148.074667 330.773334 330.752zM480.085333 746.88c159.104 0 288.106667-129.002667 288.106667-288.106667C768.192 299.648 639.189333 170.666667 480.085333 170.666667 320.981333 170.666667 192 299.648 192 458.752c0 159.104 128.981333 288.106667 288.085333 288.106667z" fill="#000000" p-id="2458"></path><path d="M689.429333 668.586667a21.333333 21.333333 0 0 1 30.165334 0l170.154666 170.154666a21.333333 21.333333 0 0 1-30.165333 30.165334l-170.154667-170.154667a21.333333 21.333333 0 0 1 0-30.165333z" fill="#000000" p-id="2459"></path></svg>