<?xml version="1.0" standalone="no"?><!DOCTYPE svg PUBLIC "-//W3C//DTD SVG 1.1//EN" "http://www.w3.org/Graphics/SVG/1.1/DTD/svg11.dtd"><svg t="1734228828843" class="icon" viewBox="0 0 1024 1024" version="1.1" xmlns="http://www.w3.org/2000/svg" p-id="8967" xmlns:xlink="http://www.w3.org/1999/xlink" width="200" height="200"><path d="M408.4 80.1c85.8-21.5 178-16.9 261 13.8 58.6 21.5 112.5 55.7 157 99.5 38.4 37.7 69.9 82.4 92.3 131.3 22.2 48.2 35.4 100.4 39 153.2 2.9 43.1-0.2 86.7-9.8 128.9-7.5 33.1-18.8 65.3-33.7 95.8-26.4 54.2-64.1 102.9-109.9 142.1-48.3 41.5-105.6 72.4-166.9 89.7-36 10.3-73.3 15.6-110.7 16.7h-20.6c-41.5-1.2-83-7.8-122.6-20.3-50.1-15.8-97.3-40.6-138.7-72.9-49.9-38.8-91.3-88.5-120.5-144.5-35.6-67.8-52.7-145.1-49.6-221.6C77.1 426.1 94.5 361 125.2 303c29.6-56.3 71.6-106 122-144.7 47.7-36.7 102.9-63.6 161.2-78.2m-45.1 191.8c-6 1.1-11.6 4.7-15.1 9.8-5.3 7.7-5.3 18.6 0 26.3 3.4 5.1 9 8.7 15.1 9.8 17.1 3.5 31.5 17.2 36 34.1 3.1 11.3 2 23.9-3.6 34.2-4.9 7.1-9.8 14.3-15.7 20.6-34.1 32-59 74.2-68.1 120.3-3.9 18.8-4.7 38.1-4 57.2-0.4 37.6 7.8 75.8 27.3 108.3 16.9 28.6 42.5 51.6 71.8 67.2 4.3 2.5 9 4.6 14 4.4 7.7 0.3 15.3-3.7 19.5-10.1 14.4-21.3 26.3-44.2 35.5-68.1 1-2.5 1.7-5.2 3.1-7.6 9.1 28.8 13.9 58.8 14.1 89-0.1 11.4 9.4 21.7 20.7 22.6 26.1 2.1 52.5 1.2 78.1-4.5 30.3-6.6 59.1-19.4 84.5-37.3 38.9-27.3 69.2-66.5 85.6-111.1 12.6-33.9 17-70.7 13.3-106.6-3.6-35.1-15.3-69.3-33.8-99.2-15.1-24.4-34.6-46.1-57.4-63.4-7-5.3-17-6-24.7-1.8-7.2 3.7-12.2 11.5-12.4 19.7-0.3 4.9 1.5 9.5 2.4 14.2 8.2 38.8 2.7 80.6-16.4 115.5-2.2-49.9-19.3-98.9-48.7-139.3-20.4-28.2-46.6-52.3-76.5-70.2-34.6-20.9-74.2-33.3-114.5-36.1-5.5-0.3-11-0.9-16.5-0.4-4.6 0.4-9 1.6-13.6 2.5z" p-id="8968"></path><path d="M439.5 325.7c30.9 9.6 59.3 26.9 82.6 49.4 25.1 24.2 44.1 54.7 54.6 87.9 11 34.8 13.2 72.6 4.9 108.2-4.7 5.8-7 13.3-7 20.8 0.1 7.3 3.9 14.4 9.9 18.5 6.4 4.5 15.1 5.4 22.3 2.4 4.1-1.6 7.2-4.8 10.7-7.4 24.2-19.2 44.2-43.7 58.3-71.2 13.2-25.6 21.1-53.9 23.3-82.6 20.6 31.1 31.3 68.4 30.7 105.7-0.3 31.1-8.5 62.1-23.7 89.2-23.8 43.1-64.9 76.2-112.2 89.9-17.9 5.1-36.6 8.1-55.3 7.4-3.6-52.4-19.6-104-46.4-149.2-4.2-7.5-12.8-12.1-21.4-11.5-8.8 0.2-17 6.1-20.3 14.2-1.8 4-1.9 8.4-2.6 12.6-5.5 34.7-17.2 68.5-34.7 98.9-13.5-9.5-25.5-21.2-34.7-35-9.6-14.3-16.1-30.6-19.9-47.3-3.5-14.8-4.4-29.9-4.3-45.1-0.9-18.9 0.6-38 5.7-56.3 8.6-31.6 26.7-60.3 50.2-83 6.2-5.6 11.4-12.4 16.4-19.1 5.1-7.1 10.6-14.2 13.8-22.5 10.1-23.6 9.5-51.4-0.9-74.9z" p-id="8969"></path></svg>