<?xml version="1.0" standalone="no"?><!DOCTYPE svg PUBLIC "-//W3C//DTD SVG 1.1//EN" "http://www.w3.org/Graphics/SVG/1.1/DTD/svg11.dtd"><svg t="1733711461663" class="icon" viewBox="0 0 1024 1024" version="1.1" xmlns="http://www.w3.org/2000/svg" p-id="7072" xmlns:xlink="http://www.w3.org/1999/xlink" width="200" height="200"><path d="M127.644657 81.434707c-2.069125 8.43716 5.690606 15.379269 10.024308 22.420639 4.379751 7.096628 11.273764 14.690584 8.686846 23.7581-5.119601 0-7.17133-5.768377-10.024308-8.827039-2.908236-3.127224-6.314823-5.977132-9.364275-8.840342-5.922896-5.5279-12.255115-13.295817-22.030759-12.891611-0.338714 10.408047 11.042497 12.846586 18.694781 19.004843 3.1569 2.532683 18.605753 14.645558 16.705474 22.406313-2.051729 8.428973-16.169261 0.607844-21.378913-1.373277-7.803733-2.940982-16.437367-8.953929-22.047132-3.374864 3.245927 7.417947 12.620435 9.18008 21.3871 12.891611 4.030803 1.717108 22.101367 5.895267 21.369703 12.904914-1.159406 11.265578-28.17469-2.51938-35.408441 4.739954 2.496867 7.730055 11.380188 5.722328 16.045441 6.113231 5.779633 0.493234 13.405311-0.38988 20.032242 1.364067 13.066597 3.426029 24.375154 23.517623 34.079166 33.939997 3.603061 3.855818 9.401114 7.259334 11.345396 10.866489 2.862187 5.184069 3.139503 12.606109 5.350868 18.320251 4.308119 11.092639 9.026584 21.088294 14.69877 31.909757 2.729158 5.210675 7.196912 10.934027 8.026814 14.931061 1.070378 5.291516-1.320065 10.521634-0.660032 14.268982 1.391696 8.219195 12.8077 20.263509 18.712177 27.830859 47.39545 60.914348 113.343441 101.850689 179.057095 143.926993 0.446162 41.634236 9.94449 74.097602 21.388123 104.551194-20.014846 12.012591-57.455573 25.601074-54.121642 62.458517 1.213641 13.521968 9.739828 24.505114 15.359826 37.337373 5.154393 11.713786 10.220782 25.775037 11.343349 40.74089 2.070148 27.182083-9.55154 68.286246 2.015913 91.641163 4.530177 9.135054 17.303085 15.750729 17.374716 25.122167 0.034792 5.564739-5.636371 8.91709-4.674463 14.263865 0.731664 4.097318 8.490372 5.891174 9.365298 10.856255 0.892323 5.248537-3.390213 9.877975-4.673439 15.606443-1.99647 8.735965-2.515287 20.082384-6.689353 28.529777-3.263323 6.614651-12.860912 17.181311-10.701736 23.76117 2.819209 8.483208 22.833031 2.365884 31.41243 0.680499 10.025331-1.958608 27.247574-1.459235 30.735002-9.506515 2.63092-6.053879-1.604544-16.566304-1.997494-23.073508-0.972141-16.231683 6.118348-36.369326 4.673439-55.662741-0.686638-9.136078-5.734608-17.781992-5.351891-23.763217 0.358157-5.094018 4.692882-10.549264 6.011924-16.983813 2.461051-11.92561 2.264577-25.121144 0.677429-38.706557 6.78759 0.172939 10.756995 1.768273 16.036231 1.369184 8.686846-0.688685 16.036231-6.28003 22.725584-6.109138 5.075599 0.127913 9.721409 4.578272 14.681374 6.109138 42.418089 13.068643 81.608669-10.267854 103.575983-29.182646 7.9296-6.869455 17.847483-16.198937 25.374924-26.485211 7.90197-10.79281 12.718673-34.174334 30.733978-28.519544 10.168594 3.208065 7.938809 12.388145 6.681166 23.082718-1.152243 9.755178 0.025583 20.441565 1.345648 30.53648 1.257643 9.606799 5.047969 19.421328 5.333472 27.830859 0.446162 12.778024-9.882068 21.704324-10.667967 30.578436-0.810459 8.590656 3.872191 12.423961 3.987824 19.664875 0.062422 3.734044-1.89107 7.305383-2.667759 11.545964-2.550079 13.856589-1.345648 41.796942 4.01443 47.524386 12.629645 13.520945 42.651402-1.558495 57.455573-4.758374 10.229992-2.201132 22.101367-1.947352 34.088376-5.427616 9.578146-2.792603 19.184945-8.248871 26.043143-13.577227 7.277754-5.636371 17.625426-14.718213 15.358803-23.762193-1.283226-5.174859-6.483668-4.187369-12.003382-8.137331-2.641153-1.885953-3.26537-4.994758-6.021134-6.118348-12.514012-5.102205-29.611411 4.3951-42.098817 0-2.63092-16.194844-17.257036-21.813818-20.708648-33.949206-5.520737-19.367093 12.95915-28.614711 17.374716-45.480844 5.324262-20.331048 0.945535-50.046836 2.65855-76.038814 1.220804-18.537192 9.730619-35.56296 8.017604-58.394968-1.908466-25.691125-13.734816-67.11763-46.111201-63.809281-10.204409 1.050935-19.389606 7.154957-27.381627 12.914124-15.45704 11.129478-30.947849 22.479991-46.771233 33.938973-6.341429 4.590552-16.696264 14.759145-23.385617 16.295128-8.135284 1.854231-28.345582-0.964978-31.404244-5.441942-4.218068-6.216585 1.321088-21.672602 3.345188-28.506241 2.961448-9.995655 7.297197-17.028838 8.686846-25.801642 2.997264-19.084661-3.425006-34.541701-2.693342-51.602262 4.798283-0.86981 5.324262 3.561106 10.711969 3.3984 8.839319-0.272199 29.173436-18.260899 34.060747-25.121144 3.515057-4.889357 4.548596-12.570293 9.365298-14.255679 11.461029-1.599428 27.951609 0 44.75532-0.683569 13.895475-0.575098 35.210943 2.13871 42.097794-3.38919 4.869914-3.892657 2.417049-10.567683 5.350868-15.60542 25.329898-0.51677 36.890188-15.021112 49.447179-28.510334 24.446785-2.085498 34.579563-18.723434 48.768727-31.234375 7.661494-0.149403 16.356526 0.774643 21.3871-2.038426 1.75804 2.505054 30.022781 11.437493 30.717605 3.3984 0.472767-5.183046-9.060353-4.282536-14.020318-6.113231-4.353145-1.603521-11.879562-6.412037-12.022825-11.540847-0.232291-8.726755 16.419971-17.440208 23.38664-21.034059 4.386914-2.278903 11.113105-2.578732 12.682857-8.16496-13.163811-2.206248-22.037922 5.624091-31.396057 9.515724-15.927761-9.090029-23.207561 6.470365-37.431517 14.930037-9.945513 5.945409-21.968337 6.801916-35.399231 8.827039-10.79281 1.64957-23.940249 5.41943-35.409464 8.831132-11.345396 3.38919-24.838711 10.313903-35.409464 10.187013-5.921873-0.068562-11.701506-2.950192-17.374716-3.3984-8.115841-0.64366-17.267269 0.457418-25.384134 0.674359-3.914146 0.113587-7.972579-1.042749-11.380188-0.674359-3.058662 0.343831-7.027044 3.217275-11.325953 4.077875-4.282536 0.824785-8.963139-0.185218-12.041244 0.661056-9.686616 2.737344-16.179494 15.148002-27.399023 17.658172-3.1569 0.720408-6.358825-0.584308-9.347902 0-5.734608 1.14201-9.93528 7.336082-15.374152 7.476275-6.030343 0.145309-9.517771-5.188162-12.692067-9.506515 3.515057-7.132444 10.604522-10.56666 16.70445-14.931061 6.082532-4.350075 14.146185-7.6574 19.373233-12.225439 2.505054-2.178619 3.815909-6.365988 6.689353-9.493212 3.1569-3.434216 8.41874-5.405103 10.024308-8.841366 4.665253-9.859555-0.731664-33.722032-2.674922-46.1419-2.784416-17.831111-11.256368-35.56603-21.656229-45.811372-5.653767-5.587252-18.764366-11.30037-31.126928-8.749268-19.015076 3.914146-45.576011 11.223622-55.636135 26.244734-6.332219 9.444093 3.441379 25.955138-5.832845 26.943652-6.885827 0.720408-8.197706-4.445242-17.356296-2.713808-1.106194 7.830339 10.844999 8.939603 10.68434 18.329461-0.14224 7.993045-14.074553 14.173814-16.036231 21.723767-1.160429 4.3951 0.302899 8.758478-0.669242 12.216229-2.25639 8.002254-10.123568 9.351995-18.052145 7.462972-12.423961-43.097564-23.616884-89.569992-34.738176-134.434805-3.728928-15.030321-5.495154-30.523177-12.023848-44.125987-5.297656-0.974188-11.808954 2.415003-14.69877 6.113231 9.961886 40.374546 21.904892 88.681762 32.732495 133.070738 1.310855 5.374404 5.226025 14.862499 4.012384 19.008936-1.471514 5.070482-10.354835 4.947685-14.020318 8.143471-31.42164-6.149047-63.96687-2.143826-90.86652-7.467065-4.263094-0.848321-9.365298-0.434905-12.032034-2.026146-2.665713-1.612731-6.110161-10.085706-8.686846-14.278191-17.400299-28.269857-39.841404-47.229674-68.149123-65.165162-3.390213-2.153036-10.310833-8.205892-14.038738-8.151657-3.460822 0.058328-6.54609 5.586229-10.006911 5.428639-4.085038-0.171915-8.936533-9.847276-12.700253-15.60542-3.584642-5.497201-9.05319-12.561084-11.362792-16.969487-1.792832-3.38919-2.657526-8.31027-4.013407-10.191106-4.263094-5.977132-14.217816-8.849552-12.701277-20.38119-2.907213-2.918469-7.135514-4.508687-10.68434-6.779404-0.624217-9.728572-7.9296-17.939581-8.009418-27.14729-0.071631-8.151657 7.313569-12.148691 6.021134-20.367887-12.478196-5.129834-11.461029 14.390755-17.383926 20.367887-7.830339 1.64036-12.085246-6.434549-15.357779-12.225439-3.353374-5.900384-6.760984-11.980869-10.024308-17.635659-6.528694-11.347442-13.289678-28.27088-21.388123-34.647101C131.247718 81.938174 130.42805 81.059154 127.644657 81.434707z" p-id="7073"></path></svg>